<svg xmlns="http://www.w3.org/2000/svg" width="375" viewBox="0 0 375 375" height="375" version="1.0"><path stroke-linecap="round" transform="matrix(9.0594 0 0 9.05012 -99.496 -100.294)" fill="none" stroke-linejoin="round" d="M 24.019794 25.500017 L 31.950089 33.429813 L 31.950089 42.499959" stroke="#000" stroke-width="2"/><path stroke-linecap="round" transform="matrix(9.0594 0 0 9.05012 -99.496 -100.294)" fill="none" stroke-linejoin="round" d="M 34.330213 31.080052 L 39.979988 25.500017" stroke="#000" stroke-width="2"/><path stroke-linecap="round" transform="matrix(9.0594 0 0 9.05012 -99.496 -100.294)" fill="none" stroke-linejoin="round" d="M 39.999822 16.709994 C 39.685059 16.544682 39.365554 16.389729 39.041305 16.244272 C 38.717056 16.098815 38.388496 15.963285 38.055623 15.838114 C 37.722751 15.713375 37.38686 15.598563 37.047089 15.49411 C 36.706887 15.389657 36.364528 15.295994 36.018721 15.212691 C 35.673344 15.129387 35.32538 15.056875 34.975261 14.995152 C 34.625141 14.93343 34.273728 14.882498 33.92059 14.842789 C 33.567021 14.802648 33.213021 14.773729 32.858158 14.755601 C 32.502864 14.737473 32.148002 14.730135 31.792277 14.73402 C 31.436983 14.737473 31.08212 14.75258 30.727258 14.778045 C 30.372826 14.803943 30.019257 14.840631 29.666982 14.88811 C 29.314706 14.935588 28.964587 14.993857 28.615761 15.062917 C 28.266935 15.131977 27.920696 15.211828 27.577044 15.302469 C 27.233392 15.39311 26.892758 15.49411 26.555143 15.6059 C 26.217528 15.717259 25.883793 15.839409 25.553939 15.971486 C 25.224085 16.103563 24.898543 16.245999 24.577312 16.398362 C 24.256082 16.550294 23.940026 16.712584 23.628712 16.88437 C 23.317399 17.056157 23.011691 17.237439 22.71202 17.428217 C 22.411917 17.618563 22.118282 17.818405 21.830253 18.027311 C 21.542655 18.236217 21.261955 18.453755 20.987724 18.679926 C 20.713492 18.906097 20.446591 19.140469 20.186588 19.383042 C 19.927017 19.625614 19.674775 19.876388 19.430726 20.134499 C 19.186246 20.39261 18.95039 20.658059 18.722295 20.930845 C 18.4942 21.204063 18.275159 21.483324 18.064311 21.769922 C 17.853895 22.056089 17.652102 22.34873 17.459795 22.647414 C 17.267056 22.946098 17.083804 23.250824 16.910038 23.56073 C 16.736272 23.871068 16.572422 24.186153 16.418059 24.506418 C 16.263696 24.826683 16.119682 25.151265 15.985153 25.480594 C 15.851055 25.809491 15.726875 26.142705 15.613474 26.479372 C 15.499642 26.816038 15.39659 27.156158 15.303886 27.499299 C 15.211182 27.84244 15.129257 28.188171 15.057681 28.536492 C 14.986536 28.884812 14.925739 29.234859 14.876153 29.586633 C 14.826567 29.938838 14.78733 30.291906 14.759734 30.64627 C 14.731707 31.000633 14.714891 31.355428 14.708855 31.711086 C 14.702818 32.066312 14.707561 32.421539 14.723515 32.776766 C 14.739469 33.131992 14.766202 33.485924 14.804146 33.839424 C 14.84209 34.192924 14.890814 34.545129 14.950317 34.895608 C 15.00982 35.246086 15.080102 35.593975 15.161165 35.940138 C 15.242227 36.2863 15.333637 36.629441 15.435827 36.969993 C 15.538449 37.310544 15.650987 37.647642 15.773874 37.980856 C 15.897192 38.314501 16.029996 38.64383 16.173579 38.969275 C 16.317163 39.294288 16.470232 39.614984 16.63365 39.930933 C 16.796637 40.24645 16.969541 40.557219 17.151931 40.861946 C 17.33389 41.167104 17.525765 41.466651 17.726696 41.759724 C 17.927196 42.053228 18.137181 42.339826 18.355359 42.620382 C 18.573968 42.900506 18.801201 43.174156 19.036626 43.440468 C 19.272052 43.70678 19.515238 43.965322 19.766617 44.216959 C 20.017996 44.468164 20.277136 44.7116 20.543607 44.946835 C 20.810077 45.18207 21.083446 45.409105 21.363714 45.627506 C 21.643983 45.845908 21.93115 46.055246 22.224353 46.255951 C 22.517988 46.457088 22.817228 46.648297 23.122505 46.830442 C 23.42735 47.013019 23.738232 47.185669 24.053857 47.348391 C 24.369914 47.511545 24.690282 47.664772 25.015824 47.808071 C 25.340935 47.95137 25.670358 48.08431 26.004093 48.207323 C 26.337396 48.330336 26.67458 48.44299 27.015214 48.544853 C 27.355416 48.647148 27.698637 48.738652 28.044876 48.819366 C 28.391115 48.900511 28.73951 48.970434 29.090061 49.029998 C 29.44018 49.089562 29.792456 49.137904 30.145594 49.175456 C 30.499163 49.213438 30.853594 49.240199 31.208457 49.255738 C 31.56375 49.271708 31.919044 49.276456 32.274338 49.270413 C 32.630063 49.26437 32.984926 49.247105 33.338926 49.21905 C 33.693357 49.190994 34.046495 49.152148 34.398771 49.102079 C 34.750615 49.052443 35.100735 48.991584 35.448698 48.920366 C 35.797093 48.848716 36.142901 48.766708 36.48569 48.673908 C 36.828911 48.580678 37.169114 48.47752 37.505867 48.363571 C 37.84262 48.250054 38.175492 48.125746 38.504484 47.991511 C 38.833475 47.857276 39.158155 47.712682 39.478523 47.55816 C 39.79846 47.404071 40.113654 47.239622 40.423674 47.065677 C 40.733693 46.892165 41.038108 46.708724 41.336917 46.51622 C 41.635726 46.323284 41.928067 46.121716 42.214372 45.911083 C 42.500676 45.700019 42.780082 45.480754 43.05302 45.252857 C 43.325527 45.024959 43.591135 44.788861 43.848982 44.54413 C 44.10726 44.299831 44.357776 44.047763 44.6001 43.787925 C 44.842856 43.528087 45.076987 43.260912 45.303358 42.986831 C 45.529297 42.712318 45.746613 42.431331 45.955305 42.143869 C 46.163997 41.855976 46.363634 41.56204 46.554216 41.262061 C 46.744798 40.962083 46.926326 40.656061 47.097936 40.34486 C 47.269547 40.03366 47.431671 39.717279 47.583878 39.396151 C 47.735654 39.075023 47.877944 38.749147 48.009886 38.419386 C 48.142259 38.089193 48.263852 37.755548 48.375528 37.418018 C 48.486773 37.080488 48.587669 36.739937 48.678218 36.395933 C 48.768766 36.05236 48.848534 35.705766 48.917523 35.357445 C 48.986513 35.008693 49.044722 34.658214 49.092152 34.305578 C 49.139582 33.953372 49.175801 33.599872 49.201672 33.245509 C 49.227112 32.891146 49.241772 32.535919 49.245222 32.180693 C 49.249102 31.825035 49.241772 31.469808 49.223231 31.115013 C 49.205122 30.759787 49.175801 30.405855 49.135701 30.052355 C 49.095602 29.699287 49.044722 29.347945 48.982632 28.997898 C 48.920973 28.64785 48.848534 28.299962 48.764885 27.954231 C 48.681667 27.6085 48.587669 27.266222 48.483323 26.926102 C 48.378977 26.586414 48.263852 26.250179 48.138809 25.917829 C 48.013335 25.585047 47.877944 25.256581 47.732636 24.932 C 47.586896 24.60785 47.431671 24.288448 47.266097 23.973794 C 47.100955 23.658709 46.926326 23.349666 46.74178 23.045803 C 46.557234 22.74194 46.364065 22.443687 46.160978 22.15191 C 45.958323 21.8597 45.746613 21.574397 45.526279 21.295568 C 45.305945 21.016738 45.076987 20.744815 44.839837 20.479798" stroke="#000" stroke-width="2"/><path d="M 295.3125 67.132812 C 295.3125 67.726562 295.253906 68.316406 295.140625 68.898438 C 295.023438 69.480469 294.851562 70.046875 294.625 70.597656 C 294.394531 71.144531 294.117188 71.667969 293.785156 72.160156 C 293.457031 72.65625 293.082031 73.113281 292.660156 73.53125 C 292.238281 73.953125 291.78125 74.328125 291.285156 74.660156 C 290.792969 74.988281 290.269531 75.265625 289.71875 75.496094 C 289.171875 75.722656 288.605469 75.894531 288.019531 76.007812 C 287.4375 76.125 286.847656 76.183594 286.253906 76.183594 C 285.660156 76.183594 285.070312 76.125 284.488281 76.007812 C 283.902344 75.894531 283.335938 75.722656 282.785156 75.496094 C 282.238281 75.265625 281.714844 74.988281 281.21875 74.660156 C 280.726562 74.328125 280.269531 73.953125 279.847656 73.53125 C 279.425781 73.113281 279.050781 72.65625 278.722656 72.160156 C 278.390625 71.667969 278.113281 71.144531 277.882812 70.597656 C 277.65625 70.046875 277.484375 69.480469 277.367188 68.898438 C 277.253906 68.316406 277.195312 67.726562 277.195312 67.132812 C 277.195312 66.539062 277.253906 65.949219 277.367188 65.367188 C 277.484375 64.785156 277.65625 64.21875 277.882812 63.671875 C 278.113281 63.121094 278.390625 62.597656 278.722656 62.105469 C 279.050781 61.609375 279.425781 61.152344 279.847656 60.734375 C 280.269531 60.3125 280.726562 59.9375 281.21875 59.609375 C 281.714844 59.277344 282.238281 59 282.785156 58.773438 C 283.335938 58.542969 283.902344 58.371094 284.488281 58.257812 C 285.070312 58.140625 285.660156 58.082031 286.253906 58.082031 C 286.847656 58.082031 287.4375 58.140625 288.019531 58.257812 C 288.605469 58.371094 289.171875 58.542969 289.71875 58.773438 C 290.269531 59 290.792969 59.277344 291.285156 59.609375 C 291.78125 59.9375 292.238281 60.3125 292.660156 60.734375 C 293.082031 61.152344 293.457031 61.609375 293.785156 62.105469 C 294.117188 62.597656 294.394531 63.121094 294.625 63.671875 C 294.851562 64.21875 295.023438 64.785156 295.140625 65.367188 C 295.253906 65.949219 295.3125 66.539062 295.3125 67.132812 Z M 295.3125 67.132812"/></svg>