<?xml version="1.0" standalone="no"?><!DOCTYPE svg PUBLIC "-//W3C//DTD SVG 1.1//EN" "http://www.w3.org/Graphics/SVG/1.1/DTD/svg11.dtd"><svg t="1665370291260" class="icon" viewBox="0 0 1024 1024" version="1.1" xmlns="http://www.w3.org/2000/svg" p-id="2085" xmlns:xlink="http://www.w3.org/1999/xlink" width="200" height="200"><path d="M535.3472 919.9104h-311.296c-34.1504 0-61.9008-27.7504-61.9008-61.9008v-148.0704c-38.5536-67.7888-57.088-144.7936-53.6576-223.3344 4.5056-102.656 47.104-199.68 119.9616-273.2544C301.312 139.776 397.9264 96.256 500.5312 90.88c115.1488-5.9904 224.4608 34.1504 307.8144 113.2544 83.4048 79.1552 129.3312 186.0096 129.3312 300.9536 0 108.4416-41.5744 210.9952-117.0944 288.768-74.2912 76.544-173.4656 120.9856-279.7568 125.5424-1.792 0.3584-3.584 0.512-5.4784 0.512z m-12.288-768.1536c-6.4 0-12.8512 0.1536-19.3024 0.512-179.4048 9.4208-326.0928 157.44-333.9264 336.9984-3.0208 69.376 14.0288 137.3696 49.408 196.608 2.816 4.7616 4.352 10.1888 4.352 15.7184v156.3648c0 0.256 0.2048 0.4608 0.4608 0.4608h306.944c1.1264-0.1536 2.2528-0.256 3.3792-0.3072 191.6928-6.144 341.8624-161.2288 341.8624-353.0752 0-97.8944-39.1168-188.9792-110.1824-256.4096-66.3552-62.8224-152.0128-96.8704-242.9952-96.8704z" fill="#333333" p-id="2086"></path><path d="M517.3248 496.7936m-45.7728 0a45.7728 45.7728 0 1 0 91.5456 0 45.7728 45.7728 0 1 0-91.5456 0Z" fill="#7790ED" p-id="2087"></path><path d="M337.408 496.7936m-45.7728 0a45.7728 45.7728 0 1 0 91.5456 0 45.7728 45.7728 0 1 0-91.5456 0Z" fill="#7790ED" p-id="2088"></path><path d="M706.6112 496.7936m-45.7728 0a45.7728 45.7728 0 1 0 91.5456 0 45.7728 45.7728 0 1 0-91.5456 0Z" fill="#7790ED" p-id="2089"></path></svg>