<?xml version="1.0" standalone="no"?><!DOCTYPE svg PUBLIC "-//W3C//DTD SVG 1.1//EN" "http://www.w3.org/Graphics/SVG/1.1/DTD/svg11.dtd"><svg t="1665370344348" class="icon" viewBox="0 0 1024 1024" version="1.1" xmlns="http://www.w3.org/2000/svg" p-id="2233" xmlns:xlink="http://www.w3.org/1999/xlink" width="200" height="200"><path d="M702.4128 913.4592H279.552c-78.848 0-143.0016-63.1296-143.0016-140.7488V232.1408c0-77.6192 64.1536-140.7488 143.0016-140.7488h422.8608c78.848 0 143.0016 63.1296 143.0016 140.7488v241.2544c0 16.9472-13.7728 30.72-30.72 30.72s-30.72-13.7728-30.72-30.72V232.1408c0-43.7248-36.608-79.3088-81.5616-79.3088H279.552c-45.0048 0-81.5616 35.584-81.5616 79.3088v540.5696c0 43.7248 36.608 79.3088 81.5616 79.3088h422.8608c45.0048 0 81.5616-35.584 81.5616-79.3088v-110.7456c0-16.9472 13.7728-30.72 30.72-30.72s30.72 13.7728 30.72 30.72v110.7456c0 77.6192-64.1536 140.7488-143.0016 140.7488z" fill="#333333" p-id="2234"></path><path d="M654.1312 318.464H327.8336c-16.9472 0-30.72-13.7728-30.72-30.72s13.7728-30.72 30.72-30.72h326.2976c16.9472 0 30.72 13.7728 30.72 30.72s-13.7728 30.72-30.72 30.72zM585.1648 472.576H327.8336c-16.9472 0-30.72-13.7728-30.72-30.72s13.7728-30.72 30.72-30.72h257.3312c16.9472 0 30.72 13.7728 30.72 30.72s-13.7728 30.72-30.72 30.72zM490.8032 624.5888H327.8336c-16.9472 0-30.72-13.7728-30.72-30.72s13.7728-30.72 30.72-30.72h162.9696c16.9472 0 30.72 13.7728 30.72 30.72s-13.7728 30.72-30.72 30.72z" fill="#333333" p-id="2235"></path><path d="M902.4 515.9424L810.1888 432.64c-21.3504-19.2512-54.7328-17.92-74.4448 3.0208l-257.3312 273.7152a52.08576 52.08576 0 0 0-14.2336 36.8128l2.048 109.1584a42.9824 42.9824 0 0 0 15.4112 32.2048 43.60192 43.60192 0 0 0 27.9552 10.1888c2.2528 0 4.5568-0.1536 6.8608-0.5632l100.4544-15.9232a53.2992 53.2992 0 0 0 30.3616-16.0768l258.1504-274.5856a51.9168 51.9168 0 0 0 14.1824-37.9392c-0.512-14.1312-6.6048-27.1872-17.2032-36.7104z m-127.4368-32.3072l79.36 71.68-22.2208 23.6544-78.1824-72.9088 21.0432-22.4256z m-170.4448 337.408l-77.2608 12.2368-1.5872-84.48 186.1632-197.9904 78.1824 72.9088-185.4976 197.3248z" fill="#7690F3" p-id="2236"></path></svg>